<svg xmlns="http://www.w3.org/2000/svg" viewBox="0 0 24 24" width="24" height="24" fill="#ffffff">
  <path d="M12 0C5.372 0 0 5.372 0 12c0 5.302 3.438 9.8 8.207 11.387.6.113.793-.26.793-.577v-2.234c-3.338.726-4.033-1.416-4.033-1.416-.546-1.387-1.333-1.757-1.333-1.757-1.09-.745.083-.729.083-.729 1.205.084 1.84 1.238 1.84 1.238 1.07 1.835 2.807 1.304 3.492.997.108-.776.42-1.304.763-1.604-2.665-.3-5.466-1.334-5.466-5.933 0-1.31.467-2.381 1.235-3.221-.123-.302-.535-1.517.117-3.162 0 0 1.008-.322 3.301 1.23a11.5 11.5 0 013.003-.404c1.018.005 2.045.138 3.003.404 2.291-1.552 3.297-1.23 3.297-1.23.653 1.645.242 2.86.12 3.162.77.84 1.233 1.911 1.233 3.221 0 4.61-2.803 5.628-5.475 5.921.43.372.814 1.104.814 2.227v3.301c0 .319.192.694.8.576C20.565 21.796 24 17.298 24 12c0-6.628-5.372-12-12-12z"/>
</svg>

